<?xml version="1.0" standalone="no"?>
<!DOCTYPE svg PUBLIC "-//W3C//DTD SVG 20010904//EN"
 "http://www.w3.org/TR/2001/REC-SVG-20010904/DTD/svg10.dtd">
<svg version="1.0" xmlns="http://www.w3.org/2000/svg"
 width="271.000000pt" height="271.000000pt" viewBox="0 0 271.000000 271.000000"
 preserveAspectRatio="xMidYMid meet">
<metadata>
Created by potrace 1.14, written by Peter Selinger 2001-2017
</metadata>
<g transform="translate(0.000000,271.000000) scale(0.100000,-0.100000)"
fill="#000000" stroke="none">
<path d="M414 2461 c-2 -2 -4 -20 -4 -39 0 -29 -3 -34 -20 -29 -11 3 -20 1
-20 -4 0 -5 -11 -9 -25 -9 -16 0 -23 -4 -19 -13 3 -8 0 -26 -6 -41 -8 -22 -15
-27 -38 -24 -25 3 -27 0 -32 -37 -5 -38 -7 -40 -40 -40 -33 -1 -35 -3 -40 -40
-5 -38 -7 -40 -43 -45 l-38 -5 0 -865 c0 -476 1 -871 1 -877 0 -8 13 -13 30
-13 32 0 40 -9 43 -56 l2 -29 1203 0 c661 -1 1203 3 1203 7 1 4 3 13 4 18 1 6
3 20 4 33 1 19 7 22 39 22 l37 0 2 834 c0 459 -1 841 -4 848 -3 8 -17 13 -32
11 -30 -3 -54 9 -45 23 3 6 3 20 0 32 l-5 22 -598 0 -598 0 0 38 c0 20 -4 37
-10 38 -5 0 -23 2 -39 2 -26 2 -30 6 -34 37 -4 42 -2 38 -32 42 -40 6 -51 17
-46 49 3 23 1 29 -14 29 -10 0 -21 4 -24 9 -3 5 -16 7 -27 4 -20 -5 -21 -3
-17 26 3 23 0 35 -10 38 -17 7 -701 10 -708 4z"/>
</g>
</svg>
