<?xml version="1.0" standalone="no"?>
<!DOCTYPE svg PUBLIC "-//W3C//DTD SVG 20010904//EN"
 "http://www.w3.org/TR/2001/REC-SVG-20010904/DTD/svg10.dtd">
<svg version="1.0" xmlns="http://www.w3.org/2000/svg"
 width="300.000000pt" height="300.000000pt" viewBox="0 0 300.000000 300.000000"
 preserveAspectRatio="xMidYMid meet">
<metadata>
Created by potrace 1.11, written by Peter Selinger 2001-2013
</metadata>
<g transform="translate(0.000000,300.000000) scale(0.100000,-0.100000)"
fill="#000000" stroke="none">
<path d="M2017 2724 c-169 -36 -327 -132 -577 -348 -137 -119 -600 -577 -795
-786 -294 -317 -366 -419 -401 -566 -22 -94 -15 -256 15 -336 55 -145 202
-308 335 -373 221 -107 413 -72 674 125 251 188 1110 1055 1299 1310 77 104
128 229 153 377 16 101 -4 205 -62 315 -78 148 -179 225 -359 273 -106 28
-181 31 -282 9z m224 -109 c62 -21 95 -56 80 -84 -14 -26 -18 -26 -72 -1 -80
36 -217 23 -337 -31 -194 -87 -353 -210 -694 -538 -32 -30 -61 -52 -64 -48
-14 13 48 88 198 238 286 287 494 430 692 475 68 15 128 12 197 -11z m-1173
-724 c80 -57 265 -210 332 -275 52 -50 82 -88 90 -113 17 -53 39 -76 57 -61
17 14 12 18 120 -117 147 -184 185 -242 174 -263 -26 -49 -485 -470 -623 -573
-133 -99 -276 -159 -377 -159 -176 0 -390 139 -474 307 -70 140 -82 235 -47
375 43 168 99 253 318 488 149 159 394 410 400 410 2 0 16 -9 30 -19z"/>
<path d="M1371 1516 c-19 -20 -22 -32 -17 -60 l7 -35 -33 9 c-28 9 -36 6 -60
-17 -33 -31 -26 -39 43 -48 48 -7 48 -7 58 -56 6 -28 11 -57 11 -64 0 -22 13
-18 39 9 20 21 21 29 13 60 -11 40 -11 40 35 27 27 -8 34 -6 57 18 14 15 26
30 26 33 0 3 -21 9 -47 12 -79 12 -81 13 -89 64 -10 70 -16 77 -43 48z"/>
<path d="M1147 1292 c-37 -37 -67 -72 -67 -79 0 -6 7 -16 16 -23 13 -11 19 -9
40 12 l25 25 57 -59 56 -59 25 26 25 25 -57 58 -57 58 22 22 c18 17 20 26 12
39 -6 9 -15 18 -20 20 -5 2 -40 -27 -77 -65z"/>
<path d="M974 1118 l-55 -52 78 -78 78 -78 25 25 25 25 -23 16 c-28 20 -28 35
3 64 33 31 33 73 0 105 -38 39 -69 32 -131 -27z m91 -37 c0 -8 -8 -19 -17 -25
-22 -13 -44 5 -34 29 7 20 51 16 51 -4z"/>
<path d="M810 955 l-23 -25 48 -105 48 -106 24 23 c13 13 22 30 20 40 -6 21
45 71 64 63 9 -3 25 5 38 19 l24 25 -98 46 c-54 25 -103 45 -110 45 -6 0 -22
-11 -35 -25z m90 -63 c23 -14 27 -21 18 -30 -18 -18 -26 -15 -43 18 -18 35
-16 36 25 12z"/>
</g>
</svg>
