<?xml version="1.0" standalone="no"?>
<!DOCTYPE svg PUBLIC "-//W3C//DTD SVG 20010904//EN"
 "http://www.w3.org/TR/2001/REC-SVG-20010904/DTD/svg10.dtd">
<svg version="1.0" xmlns="http://www.w3.org/2000/svg"
 width="174.000000pt" height="174.000000pt" viewBox="0 0 174.000000 174.000000"
 preserveAspectRatio="xMidYMid meet">
<metadata>
Created by potrace 1.14, written by Peter Selinger 2001-2017
</metadata>
<g transform="translate(0.000000,174.000000) scale(0.100000,-0.100000)"
fill="#000000" stroke="none">
<path d="M381 1662 c-36 -6 -101 -49 -143 -96 -97 -106 -139 -268 -93 -356 34
-65 45 -71 360 -195 11 -4 25 -9 30 -11 6 -2 42 -15 80 -29 39 -15 80 -29 93
-32 12 -3 23 -9 23 -14 1 -5 2 -12 4 -16 1 -5 5 -26 9 -48 5 -22 14 -49 21
-60 6 -11 18 -38 25 -60 7 -22 19 -50 27 -62 15 -23 8 -44 -29 -87 -10 -11
-18 -25 -18 -32 0 -7 -4 -14 -8 -16 -6 -2 -232 -335 -276 -407 -9 -13 17 -40
46 -46 21 -5 27 -3 33 14 3 12 12 27 20 34 14 15 97 139 185 281 30 48 64 99
76 112 l20 25 -1 -247 c-2 -241 -1 -246 19 -254 12 -4 28 -4 38 1 14 8 16 35
16 241 1 128 1 237 1 242 1 4 44 -58 96 -139 204 -316 213 -328 252 -320 61
11 72 -10 -224 430 -49 72 -89 136 -91 142 -2 7 4 20 12 29 9 8 16 21 16 29 0
7 15 29 33 50 l33 37 64 -27 c118 -49 259 -95 274 -89 8 3 37 -6 65 -20 59
-30 73 -32 106 -10 22 14 45 60 45 89 0 6 -25 29 -55 51 -35 26 -54 46 -55 60
0 13 -14 31 -35 45 -38 26 -42 50 -10 55 22 3 45 30 45 54 0 9 -37 56 -83 104
-92 98 -113 105 -155 52 -21 -28 -21 -39 -5 -83 9 -22 -17 -14 -60 20 -23 17
-44 34 -47 37 -3 3 -45 34 -95 70 -49 35 -92 67 -95 70 -3 3 -57 45 -121 93
-65 48 -122 94 -129 102 -7 8 -17 15 -22 15 -5 0 -15 6 -22 13 -7 6 -30 26
-50 42 -21 17 -53 43 -70 58 -60 54 -106 70 -175 59z m996 -650 c9 -5 13 -14
9 -20 -8 -14 -41 -4 -62 20 -15 16 -16 21 -4 28 8 5 19 3 27 -6 8 -7 21 -18
30 -22z"/>
<path d="M1216 1593 c-2 -10 -7 -32 -11 -50 -6 -32 -36 -69 -71 -89 -18 -11
-17 -13 13 -38 21 -18 35 -42 44 -76 7 -28 16 -50 20 -50 5 0 17 19 27 43 11
23 33 56 50 72 37 35 40 52 11 57 -27 4 -59 61 -59 105 0 36 -16 53 -24 26z"/>
<path d="M1403 1470 c1 -11 5 -20 9 -20 11 0 10 28 -1 35 -6 3 -9 -4 -8 -15z"/>
<path d="M1409 1418 c0 -2 -2 -14 -5 -28 -2 -14 -13 -33 -24 -42 -20 -16 -20
-17 5 -44 14 -15 25 -33 25 -40 0 -24 26 -15 27 9 1 12 11 29 22 38 20 17 20
17 0 40 -11 12 -22 33 -25 46 -5 18 -21 32 -25 21z"/>
<path d="M1490 1328 c0 -4 9 -8 20 -8 11 0 20 4 20 9 0 6 -9 9 -20 8 -11 -1
-20 -5 -20 -9z"/>
<path d="M1310 1326 c0 -9 30 -14 35 -6 4 6 -3 10 -14 10 -12 0 -21 -2 -21 -4z"/>
<path d="M1410 1210 c0 -19 3 -21 12 -12 9 9 9 15 0 24 -9 9 -12 7 -12 -12z"/>
<path d="M349 880 c-1 -19 -1 -39 0 -43 4 -20 -44 -79 -73 -91 l-31 -12 30
-15 c16 -8 36 -27 45 -44 8 -16 18 -31 23 -33 4 -2 7 -9 7 -17 0 -7 6 -18 14
-25 12 -9 17 -5 26 29 6 23 26 57 47 77 38 38 36 47 -14 60 -15 4 -27 20 -37
51 -9 25 -14 49 -11 53 2 4 -2 16 -10 26 -13 18 -14 17 -16 -16z"/>
<path d="M200 661 c0 -5 5 -13 10 -16 6 -3 10 -2 10 4 0 5 -4 13 -10 16 -5 3
-10 2 -10 -4z"/>
<path d="M208 598 c0 -7 -2 -18 -2 -25 -1 -6 -12 -23 -25 -37 -19 -20 -21 -26
-9 -26 9 0 23 -17 32 -40 9 -22 21 -40 27 -40 5 0 8 4 5 8 -3 5 4 28 16 52 20
40 20 43 4 56 -15 11 -22 26 -25 57 -2 12 -21 8 -23 -5z"/>
<path d="M295 539 c-10 -15 3 -25 16 -12 7 7 7 13 1 17 -6 3 -14 1 -17 -5z"/>
<path d="M128 503 c7 -3 16 -2 19 1 4 3 -2 6 -13 5 -11 0 -14 -3 -6 -6z"/>
<path d="M220 395 c0 -8 2 -15 4 -15 2 0 6 7 10 15 3 8 1 15 -4 15 -6 0 -10
-7 -10 -15z"/>
</g>
</svg>
